<?xml version="1.0" standalone="no"?>
<!DOCTYPE svg PUBLIC "-//W3C//DTD SVG 20010904//EN"
 "http://www.w3.org/TR/2001/REC-SVG-20010904/DTD/svg10.dtd">
<svg version="1.0" xmlns="http://www.w3.org/2000/svg"
 width="200.000000pt" height="200.000000pt" viewBox="0 0 200.000000 200.000000"
 preserveAspectRatio="xMidYMid meet">
<metadata>
Created by potrace 1.14, written by Peter Selinger 2001-2017
</metadata>
<g transform="translate(0.000000,200.000000) scale(0.100000,-0.100000)"
fill="#000000" stroke="none">
<path d="M325 1796 c-37 -16 -70 -52 -84 -89 -7 -18 -11 -143 -11 -338 l0
-309 744 0 744 0 -2 323 -1 322 -24 34 c-13 18 -42 42 -65 52 -39 17 -77 19
-656 18 -491 0 -621 -2 -645 -13z m1308 -29 c61 -40 61 -41 62 -376 l0 -306
-102 -1 -103 -2 0 302 0 302 -512 0 -513 -1 -1 -300 -1 -300 -107 -2 -107 -1
3 311 c3 294 4 314 23 339 44 58 24 56 705 55 579 -2 628 -3 653 -20z m-171
-106 c9 -1 9 -571 0 -572 -16 -4 -958 -5 -967 -2 -7 2 -10 101 -9 286 1 155 2
284 3 287 1 4 950 5 973 1z"/>
<path d="M330 1481 c0 -6 5 -13 10 -16 6 -3 10 1 10 9 0 9 -4 16 -10 16 -5 0
-10 -4 -10 -9z"/>
<path d="M1602 1481 c4 -13 18 -16 19 -4 0 4 -5 9 -11 12 -7 2 -11 -2 -8 -8z"/>
<path d="M285 1441 c-6 -11 9 -23 19 -14 9 9 7 23 -3 23 -6 0 -12 -4 -16 -9z"/>
<path d="M327 1444 c-8 -8 1 -24 14 -24 5 0 9 7 9 15 0 15 -12 20 -23 9z"/>
<path d="M366 1441 c-3 -5 1 -11 9 -15 15 -6 29 7 18 18 -9 9 -21 8 -27 -3z"/>
<path d="M1560 1435 c0 -9 5 -15 11 -13 6 2 11 8 11 13 0 5 -5 11 -11 13 -6 2
-11 -4 -11 -13z"/>
<path d="M1600 1435 c0 -9 5 -15 11 -13 6 2 11 8 11 13 0 5 -5 11 -11 13 -6 2
-11 -4 -11 -13z"/>
<path d="M1642 1441 c2 -7 7 -12 11 -12 12 1 9 15 -3 20 -7 2 -11 -2 -8 -8z"/>
<path d="M330 1395 c0 -8 5 -15 10 -15 6 0 10 7 10 15 0 8 -4 15 -10 15 -5 0
-10 -7 -10 -15z"/>
<path d="M1602 1401 c2 -7 7 -12 11 -12 12 1 9 15 -3 20 -7 2 -11 -2 -8 -8z"/>
<path d="M239 1032 c-24 -17 -24 -54 -1 -74 15 -13 107 -15 736 -15 687 0 720
1 737 18 23 23 24 39 5 65 -14 18 -34 19 -736 19 -579 0 -726 -3 -741 -13z
m1424 -11 c42 -1 61 -26 35 -45 -11 -8 -216 -11 -724 -10 -390 1 -715 2 -721
3 -15 1 -17 33 -4 47 8 7 1126 11 1414 5z"/>
<path d="M230 614 c0 -307 1 -317 22 -355 14 -25 37 -46 63 -59 41 -20 57 -20
671 -18 l629 3 33 23 c64 46 66 54 67 392 1 168 -1 311 -3 318 -3 9 -161 12
-743 12 l-739 0 0 -316z m330 -20 l0 -314 38 -1 c20 0 103 0 185 0 81 0 147
-3 147 -7 0 -4 -5 -13 -10 -18 -14 -14 -3 -42 18 -47 10 -3 -119 -5 -286 -5
-431 -1 -402 -31 -402 407 l0 302 155 -2 155 -1 0 -314z m810 9 l0 -303 -394
0 -394 0 0 303 0 302 394 0 394 1 0 -303z m321 289 c5 -127 3 -170 -8 -160
-17 14 -64 6 -76 -14 -18 -27 7 -68 41 -68 15 0 32 4 38 10 6 6 9 -58 8 -174
-2 -203 -9 -231 -67 -266 -30 -19 -52 -20 -331 -20 -263 0 -297 2 -280 14 28
21 7 50 -42 57 -21 3 56 6 171 6 116 1 218 2 228 2 16 1 17 23 17 315 l0 315
150 0 c134 0 150 -2 151 -17z m-18 -184 c7 -21 -4 -38 -23 -38 -23 0 -34 16
-26 35 7 18 43 20 49 3z m-669 -467 c8 -13 -11 -18 -45 -13 -16 2 -26 8 -23
13 7 12 61 12 68 0z"/>
<path d="M325 835 c-52 -51 -14 -140 59 -138 67 2 102 62 72 121 -26 50 -91
58 -131 17z m106 -16 c22 -22 20 -61 -6 -88 -32 -32 -105 -2 -105 43 0 60 69
87 111 45z"/>
<path d="M353 643 c-7 -3 -13 -15 -13 -28 0 -17 -7 -24 -31 -29 -28 -5 -30 -8
-27 -43 3 -33 7 -38 30 -41 21 -3 27 -9 30 -30 3 -23 8 -27 41 -30 35 -3 38
-1 43 27 5 24 12 31 30 31 14 0 25 6 25 15 1 8 2 21 3 28 4 22 -15 48 -32 45
-10 -2 -18 5 -20 17 -2 11 -7 23 -10 27 -9 9 -54 16 -69 11z"/>
<path d="M1540 812 c-18 -14 -21 -25 -16 -45 9 -38 53 -48 78 -17 23 28 23 35
-2 60 -25 25 -32 25 -60 2z m49 -49 c-16 -18 -36 -16 -43 4 -5 11 0 22 11 31
15 11 20 10 30 -4 9 -13 10 -21 2 -31z"/>
<path d="M1442 716 c-8 -18 -7 -28 4 -45 27 -38 84 -22 84 24 0 48 -68 64 -88
21z m63 -21 c0 -30 -39 -27 -43 3 -3 20 0 23 20 20 15 -2 23 -10 23 -23z"/>
<path d="M1532 648 c-38 -38 18 -105 62 -73 23 18 27 46 8 68 -17 20 -53 22
-70 5z m61 -20 c7 -21 -4 -38 -23 -38 -23 0 -34 16 -26 35 7 18 43 20 49 3z"/>
<path d="M1462 478 c-16 -16 -15 -23 3 -42 28 -27 69 10 44 40 -14 17 -31 18
-47 2z"/>
<path d="M1456 374 c-10 -26 19 -52 42 -38 9 6 17 20 17 30 0 26 -50 32 -59 8z"/>
</g>
</svg>
